<svg id="a2905dc9-9eed-40ba-bb5d-59e2df500827" data-name="Layer 1" xmlns="http://www.w3.org/2000/svg" width="1.81in" height="0.56in" viewBox="0 0 130.2 40.5"><defs><style>.b1c38ac1-0aac-46fc-977d-f0dc19a0df73{fill:#fff;}</style></defs><title>AppleAppStore_badge</title><path class="b1c38ac1-0aac-46fc-977d-f0dc19a0df73" d="M123.3,40.5H6.9A6.91,6.91,0,0,1,0,33.6H0V6.9A6.91,6.91,0,0,1,6.9,0H123.3a6.91,6.91,0,0,1,6.9,6.9h0V33.6a7,7,0,0,1-6.9,6.9ZM6.9,1A5.85,5.85,0,0,0,1,6.9V33.6a5.91,5.91,0,0,0,5.9,5.9H123.3a5.91,5.91,0,0,0,5.9-5.9V6.9A5.91,5.91,0,0,0,123.3,1Z"/><path class="b1c38ac1-0aac-46fc-977d-f0dc19a0df73" d="M30,15.4a5.63,5.63,0,0,0,.71,10A12.57,12.57,0,0,1,30,27.05a36.1,36.1,0,0,1-2.32,3.51,3.25,3.25,0,0,1-4.32,1.05,5.72,5.72,0,0,0-4.93,0,3.11,3.11,0,0,1-4.19-.92,15.5,15.5,0,0,1-4.08-10,8,8,0,0,1,1.57-5.34,5.59,5.59,0,0,1,6.82-1.9,4.6,4.6,0,0,0,4,0,5.92,5.92,0,0,1,5.43.15A5,5,0,0,1,30,15.4Z"/><path class="b1c38ac1-0aac-46fc-977d-f0dc19a0df73" d="M52.39,22.37h1.78l.13,1.38a.93.93,0,0,0,.2-.15,3.73,3.73,0,0,1,6,.11,6.17,6.17,0,0,1-.31,7A3.89,3.89,0,0,1,56,31.83a8.6,8.6,0,0,1-1.49-.94v4.76H52.39Zm2.06,4.82h0c0,.36,0,.73.06,1.09a2.28,2.28,0,0,0,4.34.76,4.6,4.6,0,0,0,0-3.89,2.18,2.18,0,0,0-2.32-1.33,2.28,2.28,0,0,0-1.93,1.67A13.22,13.22,0,0,0,54.45,27.19Z"/><path class="b1c38ac1-0aac-46fc-977d-f0dc19a0df73" d="M63.33,22.37h1.75l.15,1.37a.6.6,0,0,0,.14-.07,3.73,3.73,0,0,1,6.54.87,6,6,0,0,1-.45,5.74,3.85,3.85,0,0,1-4.53,1.55,8.24,8.24,0,0,1-1.47-.93v4.74H63.33Zm2.06,4.78h0c0,.33,0,.67,0,1a2.29,2.29,0,0,0,1.84,2.18,2.23,2.23,0,0,0,2.6-1.42,4.59,4.59,0,0,0,0-3.65,2.21,2.21,0,0,0-2.37-1.42,2.3,2.3,0,0,0-2,1.82A12.5,12.5,0,0,0,65.39,27.15Z"/><path class="b1c38ac1-0aac-46fc-977d-f0dc19a0df73" d="M50.56,31.82c-.73,0-1.35,0-2,0-.14,0-.33-.22-.38-.37q-.51-1.5-1-3a.54.54,0,0,0-.62-.46c-1.12,0-2.26,0-3.38,0a.5.5,0,0,0-.58.44c-.29,1-.62,2.06-.92,3.09-.08.26-.19.37-.47.36-.58,0-1.17,0-1.81,0,.09-.31.15-.54.23-.77,1.27-3.94,2.55-7.89,3.8-11.84.14-.44.33-.61.8-.57a10.87,10.87,0,0,0,1.51,0,.55.55,0,0,1,.65.47C47.62,22.75,48.81,26.38,50,30,50.17,30.58,50.35,31.15,50.56,31.82Zm-3.87-5.5-1.77-5.75-1.7,5.75Z"/><path class="b1c38ac1-0aac-46fc-977d-f0dc19a0df73" d="M76.92,29.45a5.78,5.78,0,0,0,3.75.76,2,2,0,0,0,1.77-1.46,1.92,1.92,0,0,0-1-2.19c-.49-.29-1-.48-1.54-.74A14.45,14.45,0,0,1,78.31,25a3.27,3.27,0,0,1-1.59-3.43,3.38,3.38,0,0,1,2.44-2.79,6.85,6.85,0,0,1,4.93.29l-.52,1.72a5.29,5.29,0,0,0-3.23-.52,1.75,1.75,0,0,0-1.53,1.37,1.64,1.64,0,0,0,.87,1.8c.52.3,1.08.54,1.63.81s1.1.52,1.61.84a3.41,3.41,0,0,1,1.66,3.36,3.45,3.45,0,0,1-2.37,3.14A7.2,7.2,0,0,1,77,31.5c-.45-.16-.66-.38-.44-.88A8,8,0,0,0,76.92,29.45Z"/><path class="b1c38ac1-0aac-46fc-977d-f0dc19a0df73" d="M102.05,27a5.08,5.08,0,0,1-1,3.32,4.56,4.56,0,0,1-5,1.51,4.11,4.11,0,0,1-3.13-3.53A5.27,5.27,0,0,1,94,23.58a4.84,4.84,0,0,1,5.14-1.18,4.5,4.5,0,0,1,2.89,4.1C102.06,26.67,102.05,26.85,102.05,27Zm-7.12.1a3.89,3.89,0,0,0,.74,2.49,2.1,2.1,0,0,0,3.46-.05,4.6,4.6,0,0,0,.1-4.87,2.15,2.15,0,0,0-3.67,0A4.14,4.14,0,0,0,94.93,27.12Z"/><path class="b1c38ac1-0aac-46fc-977d-f0dc19a0df73" d="M118.32,27.59H112a2.49,2.49,0,0,0,2.08,2.71,7.05,7.05,0,0,0,3.39-.33l.34,1.46a7.34,7.34,0,0,1-5.6,0,3.56,3.56,0,0,1-1.83-1.93,5.75,5.75,0,0,1,.35-5.4,4.19,4.19,0,0,1,4.69-1.9,3.9,3.9,0,0,1,2.88,3.68C118.36,26.44,118.32,27,118.32,27.59Zm-2-1.55a2.08,2.08,0,0,0-2-2.45A2.35,2.35,0,0,0,112,26Z"/><path class="b1c38ac1-0aac-46fc-977d-f0dc19a0df73" d="M87.17,23.92H85.83V22.34h1.34c0-.5,0-.92,0-1.35a.41.41,0,0,1,.37-.51c.55-.14,1.09-.32,1.7-.5v2.33h2.3v1.6h-2.3V25.3c0,1,0,2,0,3a4.57,4.57,0,0,0,.07.83,1.17,1.17,0,0,0,1.46,1.16l.62-.06a12.23,12.23,0,0,1,.06,1.34.46.46,0,0,1-.3.32,9.13,9.13,0,0,1-2,.06,2.25,2.25,0,0,1-1.89-2.35c-.07-1.65,0-3.3-.07-4.95Z"/><path class="b1c38ac1-0aac-46fc-977d-f0dc19a0df73" d="M103.89,31.77V22.39h1.82V24a15.44,15.44,0,0,1,1.34-1.43,2.17,2.17,0,0,1,1.85-.36v1.94h-.28a2.29,2.29,0,0,0-2.6,2.53c0,1.55,0,3.09,0,4.64v.46Z"/><path class="b1c38ac1-0aac-46fc-977d-f0dc19a0df73" d="M25.4,6.85a5.37,5.37,0,0,1-4.56,5.79c-.26,0-.46,0-.5-.34C20.14,9.82,22.88,6.83,25.4,6.85Z"/><path class="b1c38ac1-0aac-46fc-977d-f0dc19a0df73" d="M40.73,7.58a7.75,7.75,0,0,1,3.11,0A3,3,0,0,1,46,11.23a2.88,2.88,0,0,1-2.54,2.64,24.08,24.08,0,0,1-2.71.15Zm1,.73v4.8a2.49,2.49,0,0,0,2.75-.92,2.86,2.86,0,0,0,0-3.07C43.87,8.12,42.81,8.22,41.77,8.31Z"/><path class="b1c38ac1-0aac-46fc-977d-f0dc19a0df73" d="M84.81,13.91h-.88l-.07-.65a1.78,1.78,0,0,1-1.69.78l-.26,0c-1.13-.25-1.78-1.66-1.44-3.12a2,2,0,0,1,2.45-1.63,5.14,5.14,0,0,1,.86.42V7.18h1c0,.09,0,.15,0,.22Zm-1-2.21a4.86,4.86,0,0,0-.05-.76,1.09,1.09,0,0,0-2.07-.31,2.09,2.09,0,0,0,0,2.08,1,1,0,0,0,1.07.49,1,1,0,0,0,.87-.72A3.31,3.31,0,0,0,83.79,11.7Z"/><path class="b1c38ac1-0aac-46fc-977d-f0dc19a0df73" d="M59.57,9.35c-.46,1.46-.91,2.89-1.34,4.31-.13.41-.44.24-.69.28s-.4-.08-.47-.35c-.27-1-.57-2-.87-3-.3,1-.62,2-.89,2.95-.11.4-.34.39-.65.41a.49.49,0,0,1-.59-.41c-.38-1.39-.8-2.76-1.2-4.14.87-.27,1-.2,1.2.62s.43,1.82.66,2.8a1.76,1.76,0,0,0,.15-.32c.28-.95.57-1.89.82-2.85.09-.35.29-.35.57-.36s.43.09.5.38c.28,1.06.59,2.1.9,3.19.24-.94.46-1.86.69-2.77S58.59,9.2,59.57,9.35Z"/><path class="b1c38ac1-0aac-46fc-977d-f0dc19a0df73" d="M111.66,13.92h-1c0-.71,0-1.4,0-2.09,0-.26,0-.52,0-.78,0-.67-.38-1-1-1a1,1,0,0,0-1,1c0,.78,0,1.56,0,2.35v.45h-1V7.17h1V9.75A5.6,5.6,0,0,1,110,9.23a1.35,1.35,0,0,1,1.66,1.2C111.74,11.56,111.66,12.71,111.66,13.92Z"/><path class="b1c38ac1-0aac-46fc-977d-f0dc19a0df73" d="M47.26,11.67A2.24,2.24,0,0,1,49.55,9.2a2.19,2.19,0,0,1,2.27,2.37A2.26,2.26,0,0,1,49.52,14,2.17,2.17,0,0,1,47.26,11.67Zm3.55,0a9.75,9.75,0,0,0-.31-1.06,1,1,0,0,0-1-.65,1,1,0,0,0-1,.65,2.22,2.22,0,0,0,.06,2.15,1,1,0,0,0,1.8,0A6.54,6.54,0,0,0,50.81,11.66Z"/><path class="b1c38ac1-0aac-46fc-977d-f0dc19a0df73" d="M93.71,11.6A2.26,2.26,0,0,1,91.38,14a2.21,2.21,0,0,1-2.24-2.4A2.26,2.26,0,0,1,91.47,9.2,2.19,2.19,0,0,1,93.71,11.6Zm-1,.05a9.63,9.63,0,0,0-.33-1.07,1,1,0,0,0-.94-.63,1,1,0,0,0-1,.63,2.25,2.25,0,0,0,0,2.15,1,1,0,0,0,1.83,0A6.64,6.64,0,0,0,92.71,11.65Z"/><path class="b1c38ac1-0aac-46fc-977d-f0dc19a0df73" d="M71.66,9.2a2.18,2.18,0,0,1,2.27,2.37A2.26,2.26,0,0,1,71.63,14a2.17,2.17,0,0,1-2.26-2.37A2.24,2.24,0,0,1,71.66,9.2Zm-1.3,2.44a7.3,7.3,0,0,0,.3,1,1.05,1.05,0,0,0,1.93,0,2.23,2.23,0,0,0,0-2.1,1,1,0,0,0-1-.62,1,1,0,0,0-1,.64A6.75,6.75,0,0,0,70.36,11.64Z"/><path class="b1c38ac1-0aac-46fc-977d-f0dc19a0df73" d="M77.81,10.92c.15-.91-.81-1.3-2.14-.68l-.21-.64a3,3,0,0,1,2.29-.31,1.51,1.51,0,0,1,1.12,1.63c0,1,0,2,0,3h-.83l-.1-.3a6.67,6.67,0,0,1-1.37.41,1.25,1.25,0,0,1-1.39-.92,1.39,1.39,0,0,1,.57-1.65A5.4,5.4,0,0,1,77,11,4.8,4.8,0,0,1,77.81,10.92Zm0,.68a8.36,8.36,0,0,0-1,.14.83.83,0,0,0-.7,1,.63.63,0,0,0,.68.57,1,1,0,0,0,1-.82C77.87,12.22,77.85,12,77.85,11.6Z"/><path class="b1c38ac1-0aac-46fc-977d-f0dc19a0df73" d="M61.94,13.91h-1V9.34h.81l.09.42a5.92,5.92,0,0,1,1.39-.53,1.38,1.38,0,0,1,1.64,1.24c.09,1.13,0,2.27,0,3.44h-1V11.82a7.58,7.58,0,0,0,0-.83c-.09-.67-.4-1-1-.94a1,1,0,0,0-1,1c0,.76,0,1.53,0,2.29C62,13.54,62,13.71,61.94,13.91Z"/><path class="b1c38ac1-0aac-46fc-977d-f0dc19a0df73" d="M117.48,11.87h-3.16c0,1.21.71,1.53,2.67,1.22l.15.66a3.54,3.54,0,0,1-2.56.1,2.39,2.39,0,0,1-1.17-3.09A2.1,2.1,0,0,1,116,9.25a1.54,1.54,0,0,1,1.18,1.07A11.32,11.32,0,0,1,117.48,11.87Zm-3.17-.79h2.1c-.08-.8-.38-1.15-1-1.16S114.41,10.32,114.31,11.08Z"/><path class="b1c38ac1-0aac-46fc-977d-f0dc19a0df73" d="M99.25,13.92h-1c0-.6,0-1.18,0-1.76a9.63,9.63,0,0,0,0-1.2c-.06-.63-.37-.92-.92-.91a1,1,0,0,0-1,.95c0,.73,0,1.46,0,2.19v.71h-1V9.33h.81l.09.57.31-.26a1.68,1.68,0,0,1,1.75-.34,1.44,1.44,0,0,1,1,1.39C99.28,11.74,99.25,12.8,99.25,13.92Z"/><path class="b1c38ac1-0aac-46fc-977d-f0dc19a0df73" d="M106.13,13.18c.17.76.11.84-.57.85-.94,0-1.39-.38-1.43-1.33s0-1.72,0-2.6l-.69-.07v-.7l.61-.08c.16-.91.16-.91,1-1.06,0,.34-.07.79.11,1s.64.13,1,.18v.7h-1c0,.91,0,1.77,0,2.63C105.22,13.26,105.73,13.2,106.13,13.18Z"/><path class="b1c38ac1-0aac-46fc-977d-f0dc19a0df73" d="M66.82,7.16h1V13.9h-1Z"/></svg>