<svg id="aa938797-6889-4d4e-85a4-f74e4ef73f48" data-name="Layer 1" xmlns="http://www.w3.org/2000/svg" xmlns:xlink="http://www.w3.org/1999/xlink" width="1.81in" height="0.56in" viewBox="0 0 130.2 40.5"><defs><style>.b587dcff-9b6e-4b7c-b634-e44b43b485d1{fill:#fff;}.a95d1c6d-7847-4a6b-82f8-e5694e968401{fill:url(#a90fc9ac-f1ae-4f06-a14d-93c6223a3300);}.e83598ce-a064-4690-afda-b823e20c6cae{fill:url(#a74dc3c6-35dc-48d7-88aa-33813751308a);}.ad5ba084-a939-4dae-85d8-bfe1e68a1c98{fill:url(#e70461f4-79ea-4385-b535-003c3e0aa5c6);}.b77ff63e-b928-4654-ac96-06382e7674ca{fill:url(#ab1ce753-f841-411e-b18b-1ca9ff7cf0b3);}</style><linearGradient id="a90fc9ac-f1ae-4f06-a14d-93c6223a3300" x1="18.77" y1="421.75" x2="4.28" y2="436.24" gradientTransform="translate(0 -410)" gradientUnits="userSpaceOnUse"><stop offset="0" stop-color="#00a0ff"/><stop offset="0.01" stop-color="#00a1ff"/><stop offset="0.26" stop-color="#00beff"/><stop offset="0.51" stop-color="#00d2ff"/><stop offset="0.76" stop-color="#00dfff"/><stop offset="1" stop-color="#00e3ff"/></linearGradient><linearGradient id="a74dc3c6-35dc-48d7-88aa-33813751308a" x1="29.15" y1="431.49" x2="8.26" y2="431.49" gradientTransform="translate(0 -410)" gradientUnits="userSpaceOnUse"><stop offset="0" stop-color="#ffe000"/><stop offset="0.41" stop-color="#ffbd00"/><stop offset="0.78" stop-color="orange"/><stop offset="1" stop-color="#ff9c00"/></linearGradient><linearGradient id="e70461f4-79ea-4385-b535-003c3e0aa5c6" x1="21.38" y1="433.48" x2="1.72" y2="453.12" gradientTransform="translate(0 -410)" gradientUnits="userSpaceOnUse"><stop offset="0" stop-color="#ff3a44"/><stop offset="1" stop-color="#c31162"/></linearGradient><linearGradient id="ab1ce753-f841-411e-b18b-1ca9ff7cf0b3" x1="6.24" y1="414.38" x2="15.01" y2="423.15" gradientTransform="translate(0 -410)" gradientUnits="userSpaceOnUse"><stop offset="0" stop-color="#32a071"/><stop offset="0.07" stop-color="#2da771"/><stop offset="0.48" stop-color="#15cf74"/><stop offset="0.8" stop-color="#06e775"/><stop offset="1" stop-color="#00f076"/></linearGradient></defs><title>GooglePlay_badge</title><path class="b587dcff-9b6e-4b7c-b634-e44b43b485d1" d="M123.3,40.5H6.9A6.91,6.91,0,0,1,0,33.6H0V6.9A6.91,6.91,0,0,1,6.9,0H123.3a6.91,6.91,0,0,1,6.9,6.9h0V33.6a7,7,0,0,1-6.9,6.9ZM6.9,1A5.85,5.85,0,0,0,1,6.9V33.6a5.91,5.91,0,0,0,5.9,5.9H123.3a5.91,5.91,0,0,0,5.9-5.9V6.9A5.91,5.91,0,0,0,123.3,1Z"/><path class="b587dcff-9b6e-4b7c-b634-e44b43b485d1" d="M48,23.8a6.14,6.14,0,0,1-6.73,7.35A7,7,0,0,1,34.9,26a6.82,6.82,0,0,1,5.36-8.22,6.65,6.65,0,0,1,6.05,1.68L45,20.71a4.92,4.92,0,1,0-.19,7.53,3.44,3.44,0,0,0,1.3-2.59h-4.4V23.8Z"/><path class="b587dcff-9b6e-4b7c-b634-e44b43b485d1" d="M74.74,30.22a3.86,3.86,0,0,1-5.42-.45,4.38,4.38,0,0,1-.11-5.83,3.9,3.9,0,0,1,5.54-.6l.07-.62h1.8v.55c0,2.34,0,4.67,0,7a7.61,7.61,0,0,1-.21,1.91A3.67,3.67,0,0,1,73.14,35,4.27,4.27,0,0,1,68.73,33c-.07-.13-.13-.26-.22-.45l1.63-.7c.45.71.94,1.39,1.82,1.47a3.53,3.53,0,0,0,1.55-.16C74.47,32.76,74.9,31.67,74.74,30.22Zm.17-3.4a2.49,2.49,0,0,0-2.33-2.68,2.57,2.57,0,0,0-2.5,2.68,2.53,2.53,0,0,0,2.43,2.61A2.44,2.44,0,0,0,74.91,26.82Z"/><path class="b587dcff-9b6e-4b7c-b634-e44b43b485d1" d="M95.19,26v4.84H93.28V18.08h5.13a2.64,2.64,0,0,1,.49.08,4,4,0,0,1,3.24,4.32A4,4,0,0,1,98.29,26C97.28,26,96.27,26,95.19,26Zm0-1.77c.76,0,1.47,0,2.18,0a6.43,6.43,0,0,0,.88,0,2.28,2.28,0,0,0,2-2.07A2.11,2.11,0,0,0,98.65,20a32.48,32.48,0,0,0-3.44-.17Z"/><path class="b587dcff-9b6e-4b7c-b634-e44b43b485d1" d="M113.86,30.83h-1.8l0-.86c-.08,0-.14,0-.16.06-1,1.44-3.27,1.31-4.43.49a2.59,2.59,0,0,1,0-4.33,4.41,4.41,0,0,1,3.94-.54c.21.06.41.14.61.21l.16-.11a5.3,5.3,0,0,0-.63-1.06,2.27,2.27,0,0,0-3.13.13.55.55,0,0,1-.44.13c-.46-.16-.91-.37-1.42-.58a3,3,0,0,1,1.77-1.65,4.63,4.63,0,0,1,3.49,0,3,3,0,0,1,2.07,2.67C113.92,27.2,113.86,29,113.86,30.83Zm-3.6-3.92a12.74,12.74,0,0,0-1.38.39,1,1,0,0,0-.67,1.1,1,1,0,0,0,.83.91,2.31,2.31,0,0,0,2.8-1.25c.27-.59.23-.7-.4-.9C111.09,27.06,110.73,27,110.26,26.91Z"/><path class="b587dcff-9b6e-4b7c-b634-e44b43b485d1" d="M58.46,26.74a4.43,4.43,0,1,1,4.38,4.42A4.31,4.31,0,0,1,58.46,26.74Zm4.44,2.69a2.65,2.65,0,1,0-2.51-2.64A2.55,2.55,0,0,0,62.9,29.43Z"/><path class="b587dcff-9b6e-4b7c-b634-e44b43b485d1" d="M57.63,26.77a4.43,4.43,0,1,1-4.44-4.34A4.34,4.34,0,0,1,57.63,26.77Zm-4.45,2.66a2.65,2.65,0,1,0-2.47-2.68A2.54,2.54,0,0,0,53.18,29.43Z"/><path class="b587dcff-9b6e-4b7c-b634-e44b43b485d1" d="M83.12,28.11c.93,1.71,2.78,1.76,4.33.14l1.44.95A4.37,4.37,0,0,1,84.09,31a4.44,4.44,0,0,1-1.43-7.85,3.92,3.92,0,0,1,5.58,1,15.08,15.08,0,0,1,.81,1.51Zm-.31-1.47,3.89-1.59a1.83,1.83,0,0,0-2.1-.88A2.39,2.39,0,0,0,82.81,26.64Z"/><path class="b587dcff-9b6e-4b7c-b634-e44b43b485d1" d="M115.52,34.79c.63-1.38,1.22-2.63,1.77-3.91a1.27,1.27,0,0,0,0-.86c-1-2.24-2-4.46-3-6.69l-.28-.64c.67,0,1.28,0,1.89,0,.13,0,.29.24.36.4.64,1.52,1.27,3.05,1.9,4.57l.26.57c.11-.23.19-.38.25-.54.62-1.53,1.24-3.06,1.84-4.6a.55.55,0,0,1,.64-.43c.53,0,1.06,0,1.68,0l-.22.53c-1.63,3.69-3.26,7.37-4.87,11.07a.69.69,0,0,1-.77.51C116.56,34.76,116.1,34.79,115.52,34.79Z"/><path class="b587dcff-9b6e-4b7c-b634-e44b43b485d1" d="M105.15,30.86h-1.87V18.1h1.87Z"/><path class="b587dcff-9b6e-4b7c-b634-e44b43b485d1" d="M78,18.08h1.84V30.83H78Z"/><path class="b587dcff-9b6e-4b7c-b634-e44b43b485d1" d="M74.56,11.69V7.2h1v6.26c-.87.2-.89.19-1.33-.5L71.54,8.79V13.5h-1V7.26c.9-.23,1-.18,1.52.57l2.09,3.3Z"/><path class="b587dcff-9b6e-4b7c-b634-e44b43b485d1" d="M40.38,11H38.21v-.93H41.3a2.71,2.71,0,0,1-1.07,3,3.48,3.48,0,0,1-4.43-.47A3.33,3.33,0,0,1,40,7.53a6.08,6.08,0,0,1,.68.55L40,8.67a2.4,2.4,0,0,0-3.21-.11,2.43,2.43,0,0,0-.58,2.86,2.35,2.35,0,0,0,2.58,1.25A1.85,1.85,0,0,0,40.38,11Z"/><path class="b587dcff-9b6e-4b7c-b634-e44b43b485d1" d="M66.29,13.67A3.23,3.23,0,0,1,63,10.35,3.23,3.23,0,0,1,66.3,7a3.32,3.32,0,1,1,0,6.63Zm0-5.66A2.26,2.26,0,0,0,64,10.39a2.29,2.29,0,1,0,4.58,0A2.25,2.25,0,0,0,66.27,8Z"/><path class="b587dcff-9b6e-4b7c-b634-e44b43b485d1" d="M45.93,9.9v.91h-2.5v1.74H46.2v.95H42.42V7.21H46.2v.93H43.43V9.9Z"/><path class="b587dcff-9b6e-4b7c-b634-e44b43b485d1" d="M48.63,8.13H46.91V7.2h4.4v.92H49.63v5.4h-1Z"/><path class="b587dcff-9b6e-4b7c-b634-e44b43b485d1" d="M57.82,13.52V8.15H56.09v-1h4.44v.93H58.82v5.39Z"/><path class="b587dcff-9b6e-4b7c-b634-e44b43b485d1" d="M55.24,13.53h-.92V7.21h.92Z"/><path class="a95d1c6d-7847-4a6b-82f8-e5694e968401" d="M9,10.73a1.72,1.72,0,0,0-.39,1.21V31A1.7,1.7,0,0,0,9,32.25l.07.06L19.71,21.62v-.25L9,10.67Z"/><path class="e83598ce-a064-4690-afda-b823e20c6cae" d="M23.25,25.19l-3.54-3.57v-.25l3.54-3.57.08,0,4.24,2.41a1.31,1.31,0,0,1,0,2.5l-4.22,2.4Z"/><path class="ad5ba084-a939-4dae-85d8-bfe1e68a1c98" d="M23.36,25.14l-3.65-3.65L9,32.25a1.42,1.42,0,0,0,1.8.06l12.62-7.17"/><path class="b77ff63e-b928-4654-ac96-06382e7674ca" d="M23.36,17.85,10.74,10.68A1.42,1.42,0,0,0,9,10.73L19.71,21.49Z"/></svg>